<svg width="1111" height="997" viewBox="0 0 1111 997" fill="none" xmlns="http://www.w3.org/2000/svg">
<g clip-path="url(#clip0_13_25)">
<path d="M186.378 488.622C213.649 488.622 235.756 460.737 235.756 426.339C235.756 391.94 246.659 306.26 186.378 343.293C137 236.12 137 426.339 137 426.339C137 460.737 159.107 488.622 186.378 488.622Z" fill="#01C839"/>
<path d="M239.123 761.325C239.123 804.091 432.695 849.981 388.38 849.981C344.065 849.981 168.984 841.124 168.984 798.359C168.984 755.593 239.123 673.23 239.123 686.135C283.438 686.135 239.123 718.559 239.123 761.325Z" fill="#01C839"/>
<path d="M965.174 200.209C965.174 261.258 912.921 310.749 848.462 310.749C784.004 310.749 827.734 54.8796 731.75 200.209C731.75 139.159 784.004 89.6688 848.462 89.6688C912.921 89.6688 965.174 139.159 965.174 200.209Z" fill="#01C839"/>
<path d="M618.81 670.74L616.677 775.27L676.409 780.959C676.409 794.233 672.379 808.455 664.32 823.625H500.769L498.635 798.736C520.916 791.151 542.723 785.463 564.056 781.67C559.315 597.734 555.523 459.782 552.678 367.814C535.138 364.496 514.042 358.807 489.391 350.748L491.525 325.86H669.298C677.357 341.03 681.386 355.252 681.386 368.526C657.683 370.422 638.721 371.37 624.499 371.37C623.551 420.672 622.603 465.234 621.654 505.055C621.18 544.876 620.706 572.846 620.232 588.964L790.183 374.214L733.296 368.526C733.296 355.252 737.325 341.03 745.384 325.86H926.002L928.135 357.148C906.328 364.733 884.996 370.422 864.137 374.214L724.052 542.743L887.603 775.27L947.335 780.959C947.335 794.233 943.305 808.455 935.246 823.625H846.36L684.942 591.097L618.81 670.74Z" fill="#01C839"/>
<path d="M483.861 193.743C480.777 297.361 477.385 473.143 473.684 721.089L551.399 728.49C551.399 745.76 546.156 764.263 535.671 784H322.882L320.107 751.619C355.88 738.667 384.252 731.265 405.222 729.415C399.054 491.338 394.12 312.781 390.419 193.743H255.345L233.141 288.11L179.481 284.409C170.229 246.786 165.603 208.545 165.603 169.688C165.603 162.287 166.22 151.185 167.454 136.382H700.351C701.584 144.4 702.201 156.736 702.201 173.389C702.201 206.695 697.884 243.085 689.249 282.559C675.68 286.259 657.793 288.11 635.589 288.11L612.46 193.743H483.861Z" fill="#01C839"/>
</g>
<defs>
<clipPath id="clip0_13_25">
<rect width="1111" height="997" rx="73" fill="white"/>
</clipPath>
</defs>
</svg>
